<svg width="15" height="18" viewBox="0 0 15 18" fill="none" xmlns="http://www.w3.org/2000/svg">
<path d="M6.71078 0.0350285C3.79457 0.292116 1.30812 2.25672 0.383379 5.03862C-0.230559 6.88428 -0.103934 8.8412 0.74023 10.5679C1.30045 11.7075 1.95659 12.4941 3.08471 13.3728C4.44304 14.428 5.38697 15.4986 6.30404 17.0258C6.50357 17.3558 6.7031 17.6742 6.74915 17.7318C7.03693 18.0963 7.70459 18.0886 7.98853 17.7126C8.04225 17.6435 8.28783 17.2483 8.5334 16.8377C9.05141 15.9744 9.32001 15.5907 9.7843 15.0535C10.3253 14.4242 10.8625 13.933 11.6798 13.3268C12.4511 12.7512 12.9883 12.191 13.4871 11.4466C14.9222 9.28631 15.1256 6.56196 14.0243 4.23283C12.8809 1.82312 10.5978 0.253744 7.90412 0.0311928C7.40146 -0.0110168 7.22879 -0.0110168 6.71078 0.0350285ZM8.26481 4.23283C9.14351 4.48992 9.87256 5.09618 10.2793 5.90581C10.5018 6.34708 10.5901 6.68858 10.6131 7.22962C10.6592 8.24645 10.3253 9.05608 9.56559 9.77362C9.30466 10.0192 9.15885 10.1228 8.84805 10.2763C8.29167 10.5487 7.954 10.6293 7.36309 10.6293C6.64938 10.6293 6.08149 10.4528 5.49441 10.0537C5.24116 9.88106 4.82675 9.46281 4.64257 9.19038C4.48141 8.95632 4.28572 8.52656 4.19363 8.20424C4.08235 7.82053 4.09003 6.91113 4.20898 6.50056C4.56583 5.26885 5.56732 4.37097 6.85275 4.1369C7.19425 4.07551 7.88493 4.12155 8.26481 4.23283Z" fill="#B0AFAF"/>
</svg>
