<svg width="25" height="25" viewBox="0 0 25 25" fill="none" xmlns="http://www.w3.org/2000/svg">
<path fill-rule="evenodd" clip-rule="evenodd" d="M4 12.5C4 7.80558 7.80558 4 12.5 4C17.1944 4 21 7.80558 21 12.5C21 17.1944 17.1944 21 12.5 21C7.80558 21 4 17.1944 4 12.5ZM13.25 7.5C13.25 7.08579 12.9142 6.75 12.5 6.75C12.0858 6.75 11.75 7.08579 11.75 7.5V12.5C11.75 12.7586 11.8832 12.9989 12.1025 13.136L15.1025 15.011C15.4538 15.2305 15.9165 15.1238 16.136 14.7725C16.3555 14.4212 16.2488 13.9585 15.8975 13.739L13.25 12.0843V7.5Z" fill="#B0AFAF"/>
</svg>
