<svg width="21" height="21" viewBox="0 0 21 21" fill="none" xmlns="http://www.w3.org/2000/svg">
<g clip-path="url(#clip0_38_533)">
<path d="M5.20705 2.24211C2.90627 2.59757 1.1133 4.29289 0.609398 6.58585C0.484398 7.14054 0.488304 8.19914 0.613304 8.78117C0.738304 9.3671 0.859398 9.70695 1.14455 10.2851C1.56252 11.1288 2.07815 11.746 3.42971 13.0155C4.80862 14.3124 6.31643 15.6288 8.64455 17.5624C9.37502 18.1718 10.0235 18.6991 10.086 18.7304C10.2461 18.8124 10.6133 18.8398 10.793 18.7812C10.9492 18.7304 11.1133 18.6015 12.4922 17.4569C15.4336 15.0077 17.875 12.8163 18.7774 11.8163C19.3164 11.2148 19.6016 10.8124 19.8789 10.246C20.1367 9.71867 20.2696 9.33585 20.3906 8.76554C20.5039 8.23429 20.5156 7.16789 20.4102 6.67179C20.0469 4.93742 18.9766 3.52726 17.4453 2.76945C15.9414 2.02726 14.2266 1.98429 12.6953 2.65617C12.0235 2.94914 11.5508 3.28507 10.8828 3.93351L10.5 4.3007L10.0821 3.89445C9.44143 3.27335 8.93362 2.92179 8.24612 2.62882C7.33205 2.23429 6.18752 2.08976 5.20705 2.24211ZM6.6758 3.99992C7.25393 4.10148 7.7383 4.29289 8.21487 4.6132C8.34377 4.70304 8.8008 5.1171 9.23049 5.53898C9.82033 6.12101 10.0508 6.32023 10.168 6.3632C10.3867 6.43351 10.7266 6.4257 10.8906 6.33976C10.9649 6.3046 11.3633 5.94132 11.7696 5.54289C12.1797 5.14054 12.6289 4.72648 12.7735 4.62882C13.1172 4.38273 13.5508 4.18742 14.0117 4.06632C14.3321 3.98039 14.4688 3.96476 14.9531 3.96476C15.4414 3.96476 15.5742 3.98039 15.9102 4.07023C17.711 4.54679 18.8867 6.22648 18.6992 8.0507C18.625 8.78898 18.3321 9.53898 17.8906 10.1327C17.4961 10.664 16.3438 11.7929 14.7969 13.1562C13.3086 14.4687 10.5664 16.789 10.5 16.789C10.4805 16.789 10.0196 16.4179 9.47658 15.9609C6.06252 13.1054 3.73049 10.9726 3.12112 10.1523C2.4258 9.21476 2.14455 8.07023 2.33987 6.98429C2.69924 5.00773 4.66408 3.65617 6.6758 3.99992Z" fill="#3A3A3A"/>
<path d="M7.5 3.5L10.5 6L12 5L13 4.5L14.5 3.5H16L17 4.5L18 5L19 6.5V8L18.5 10L17.5 11.5L14 14.5L12 16.5L10.5 17L8.5 16L6 13.5L3 10.5L2 9L2.5 6L3.5 4.5L5 3.5H7.5Z" fill="#3A3A3A" stroke="#3A3A3A" stroke-linecap="round"/>
</g>
<defs>
<clipPath id="clip0_38_533">
<rect width="20" height="20" fill="white" transform="translate(0.5 0.5)"/>
</clipPath>
</defs>
</svg>
