<svg width="20" height="21" viewBox="0 0 20 21" fill="none" xmlns="http://www.w3.org/2000/svg">
<path d="M4.68948 1.56453C2.38869 1.94034 0.595726 3.73265 0.0918198 6.15681C-0.0331802 6.74323 -0.029274 7.86239 0.095726 8.47773C0.220726 9.09719 0.34182 9.45648 0.626976 10.0677C1.04494 10.9597 1.56057 11.6122 2.91213 12.9544C4.29104 14.3255 5.79885 15.7172 8.12698 17.7614C8.85744 18.4056 9.50588 18.9632 9.56838 18.9962C9.72854 19.0829 10.0957 19.1118 10.2754 19.0499C10.4317 18.9962 10.5957 18.8599 11.9746 17.6499C14.916 15.0605 17.3574 12.7438 18.2598 11.6865C18.7988 11.0506 19.084 10.6252 19.3613 10.0264C19.6192 9.46887 19.752 9.06415 19.8731 8.46121C19.9863 7.89956 19.9981 6.77214 19.8926 6.24766C19.5293 4.41405 18.459 2.92322 16.9278 2.12205C15.4238 1.33739 13.709 1.29197 12.1778 2.00228C11.5059 2.31201 11.0332 2.66717 10.3653 3.35271L9.98244 3.7409L9.56448 3.31141C8.92385 2.65478 8.41604 2.28311 7.72854 1.97337C6.81448 1.55627 5.66994 1.40347 4.68948 1.56453ZM6.15823 3.42291C6.73635 3.53029 7.22073 3.73265 7.69729 4.07129C7.82619 4.16627 8.28323 4.60402 8.71291 5.05004C9.30276 5.66537 9.53323 5.87599 9.65041 5.92141C9.86916 5.99575 10.209 5.98749 10.3731 5.89663C10.4473 5.85947 10.8457 5.4754 11.252 5.05416C11.6621 4.6288 12.1113 4.19105 12.2559 4.0878C12.5996 3.82763 13.0332 3.62114 13.4942 3.49312C13.8145 3.40227 13.9512 3.38575 14.4356 3.38575C14.9238 3.38575 15.0567 3.40227 15.3926 3.49725C17.1934 4.00108 18.3692 5.77687 18.1817 7.70546C18.1074 8.48599 17.8145 9.2789 17.3731 9.90662C16.9785 10.4683 15.8262 11.6618 14.2793 13.103C12.791 14.4906 10.0489 16.9437 9.98244 16.9437C9.96291 16.9437 9.50198 16.5514 8.95901 16.0682C5.54494 13.0494 3.21291 10.7945 2.60354 9.92727C1.90823 8.93613 1.62698 7.72611 1.82229 6.57804C2.18166 4.48839 4.14651 3.0595 6.15823 3.42291Z" fill="#2E2E32"/>
</svg>
