<svg width="20" height="21" viewBox="0 0 20 21" fill="none" xmlns="http://www.w3.org/2000/svg">
<g clip-path="url(#clip0_38_611)">
<path d="M9.6864 0.74345C9.77383 0.704107 9.89721 0.687275 10.0162 0.687777C10.1355 0.68828 10.2589 0.706245 10.3472 0.742859L10.3473 0.742916C10.3588 0.747723 10.3774 0.758997 10.3982 0.772282C10.4208 0.786654 10.4507 0.806389 10.4873 0.831015C10.5604 0.880304 10.6612 0.949842 10.7856 1.03669C11.0344 1.21041 11.3782 1.45387 11.7854 1.74418C12.5998 2.32483 13.6683 3.09321 14.7382 3.86669C15.808 4.64017 16.8794 5.4188 17.6997 6.01996C18.1099 6.32053 18.4573 6.57679 18.7105 6.76589C18.8371 6.86043 18.9402 6.93828 19.0158 6.99653C19.0902 7.05378 19.1408 7.09419 19.1597 7.11253L19.1597 7.11258C19.4506 7.39544 19.6661 7.73848 19.7859 8.12179L19.8718 8.39515L19.8741 8.40247V8.41014V14.0351C19.8741 14.551 19.8743 15.0207 19.8745 15.4486C19.8753 17.6296 19.8757 18.7229 19.8492 19.2924C19.8334 19.6305 19.808 19.7933 19.7622 19.8902C19.7381 19.9414 19.7088 19.9733 19.6765 20.0016C19.6638 20.0128 19.6521 20.0223 19.6404 20.0318C19.621 20.0476 19.6016 20.0633 19.5778 20.0866L19.5777 20.0866C19.5708 20.0934 19.564 20.1 19.5573 20.1066C19.5001 20.1628 19.4496 20.2124 19.363 20.249C19.2683 20.2889 19.1331 20.3128 18.8976 20.3277C18.454 20.3558 17.6322 20.3532 16.0017 20.3479C15.8976 20.3476 15.7902 20.3472 15.6794 20.3469L15.6794 20.3469L12.363 20.3351L12.3496 20.3351L12.338 20.3283L12.1507 20.2191C12.1507 20.2191 12.1506 20.219 12.1506 20.219C12.0426 20.1567 11.9042 20.0266 11.8414 19.9344L11.8414 19.9344L11.8406 19.9333L11.7352 19.7692L11.7274 19.757L11.7272 19.7426L11.7077 17.4379L11.6883 15.1387L11.598 14.9131L11.598 14.913C11.1982 13.9079 10.12 13.484 9.17438 13.9511L9.17387 13.9513C8.89057 14.0873 8.57791 14.3884 8.43039 14.653C8.37713 14.7509 8.33843 14.828 8.30904 14.9252C8.27954 15.0227 8.25882 15.1427 8.24456 15.3256C8.21595 15.6928 8.21395 16.3035 8.21395 17.4765V19.6328V19.6452L8.20816 19.6562L8.09907 19.8626C8.09902 19.8627 8.09898 19.8628 8.09893 19.8629C8.01689 20.0228 7.92872 20.1196 7.78007 20.2105C7.78001 20.2105 7.77994 20.2106 7.77987 20.2106L7.59279 20.3275L7.58072 20.3351L7.56648 20.3351L4.32038 20.3469L4.32037 20.3469C3.13286 20.3508 2.30642 20.3508 1.75774 20.3459C1.48344 20.3434 1.27823 20.3398 1.1319 20.3347C0.987429 20.3298 0.896172 20.3234 0.853122 20.3146L0.853121 20.3146L0.85239 20.3144C0.532603 20.2438 0.256041 19.9673 0.185439 19.6475L0.185429 19.6475L0.185234 19.6465C0.180485 19.6228 0.176848 19.5791 0.173692 19.5167C0.170468 19.453 0.167617 19.3664 0.165111 19.2546C0.160096 19.0308 0.156432 18.7047 0.15399 18.2556C0.149106 17.3575 0.149107 15.9667 0.153013 13.9179L0.153013 13.9178C0.154004 13.5309 0.154854 13.1703 0.155645 12.8343C0.161093 10.5217 0.16381 9.36831 0.191147 8.7434C0.206788 8.38585 0.23059 8.19683 0.269179 8.06119C0.297671 7.96105 0.334772 7.8895 0.378791 7.80462C0.394244 7.77482 0.410551 7.74337 0.427636 7.70847L0.427679 7.70838C0.488225 7.58531 0.542866 7.48402 0.66274 7.35135C0.781207 7.22023 0.962712 7.05915 1.27563 6.81321C1.90168 6.32117 3.06301 5.48245 5.32221 3.85395L5.32223 3.85394C6.48829 3.01407 7.5616 2.24449 8.35123 1.68144C8.74604 1.39993 9.06999 1.17 9.29918 1.00871C9.41376 0.928085 9.50476 0.864534 9.56914 0.820248C9.6013 0.79812 9.627 0.78068 9.64573 0.768278C9.65508 0.762094 9.66293 0.757006 9.6691 0.753159C9.67395 0.750134 9.68064 0.746037 9.6864 0.74345ZM9.6864 0.74345L9.70692 0.789045M9.6864 0.74345C9.68656 0.743378 9.68672 0.743307 9.68688 0.743237L9.70692 0.789045M9.70692 0.789045C9.64442 0.816389 7.68348 2.21483 5.35145 3.89451L19.7382 8.1367C19.621 7.7617 19.41 7.42576 19.1249 7.14842C18.8632 6.89451 10.5429 0.878889 10.328 0.789045C10.1679 0.722639 9.86317 0.718733 9.70692 0.789045ZM12.3632 20.2851L12.1757 20.1758C12.0741 20.1172 11.9413 19.9922 11.8827 19.9062L12.3632 20.2851ZM12.3632 20.2851L15.6796 20.2969L12.3632 20.2851ZM11.7577 17.4375L11.7772 19.7422L11.7382 15.1289L11.7577 17.4375ZM8.47394 12.4043L8.47403 12.4043C9.00046 12.147 9.41814 12.0515 10.0038 12.0515C11.5892 12.0515 12.9607 13.1178 13.353 14.6556C13.4483 15.0289 13.4483 15.0654 13.4483 16.8295V16.8515V18.614H15.7811H18.114V13.6523V8.65786L18.0308 8.51321C18.0252 8.50361 18.0107 8.48549 17.9788 8.45476C17.9477 8.42485 17.9029 8.3856 17.8401 8.33389C17.7144 8.23052 17.5191 8.07947 17.2228 7.85737C16.6304 7.41331 15.6366 6.68698 13.994 5.49357C12.9042 4.7026 11.9062 3.98294 11.1768 3.46106C10.8121 3.2001 10.5147 2.98865 10.3065 2.84248C10.2024 2.76937 10.1207 2.71271 10.0643 2.67439C10.036 2.65519 10.0143 2.64081 9.99942 2.63133C9.9993 2.63125 9.99918 2.63118 9.99907 2.6311C9.99699 2.63237 9.99475 2.63376 9.99234 2.63527C9.97349 2.64705 9.94617 2.66497 9.90996 2.68937C9.83766 2.73808 9.73138 2.8116 9.58957 2.91104C9.30602 3.10987 8.88125 3.41176 8.30388 3.82483C7.14921 4.65092 5.38468 5.92134 2.91991 7.70059C2.58383 7.94483 2.3603 8.11105 2.21258 8.23116C2.0632 8.35263 1.99743 8.42233 1.96951 8.47324L1.96952 8.47325L1.96902 8.47412L1.88583 8.6188V13.6133V18.575H4.21864H6.55145V16.832V16.8103C6.55145 15.0654 6.55145 15.0289 6.64674 14.6556C6.89647 13.6687 7.56244 12.8521 8.47394 12.4043Z" fill="#9C9C9C" stroke="#9C9C9C" stroke-width="0.1"/>
</g>
<defs>
<clipPath id="clip0_38_611">
<rect width="20" height="20" fill="white" transform="translate(0 0.5)"/>
</clipPath>
</defs>
</svg>
