<svg width="15" height="15" viewBox="0 0 15 15" fill="none" xmlns="http://www.w3.org/2000/svg">
<path d="M7.32424 4.01652C2.73928 6.11711 1.60842 6.64445 1.53225 6.72355C1.42971 6.83195 1.38869 6.9755 1.42092 7.13957C1.44729 7.28019 1.62307 7.4589 1.75783 7.48527C1.8135 7.49406 3.02346 7.59953 4.44729 7.71672C5.87112 7.83683 7.04299 7.93937 7.05178 7.94816C7.06057 7.95695 7.16311 9.12883 7.28322 10.5527C7.40041 11.9765 7.50588 13.1864 7.5176 13.2421C7.54104 13.3739 7.72561 13.5556 7.86623 13.582C8.02444 13.6112 8.16799 13.5702 8.27639 13.4677C8.35549 13.3915 8.88576 12.2607 10.9746 7.705C13.4063 2.40812 13.5762 2.02433 13.5762 1.87199C13.5791 1.73722 13.5645 1.69035 13.4942 1.59953C13.4004 1.47648 13.2656 1.40617 13.1192 1.40617C13.0547 1.40617 11.1797 2.24992 7.32424 4.01652ZM12.1582 2.8505C12.1582 2.85636 11.2881 4.7548 10.2276 7.07218C8.36135 11.1445 8.29397 11.2821 8.27932 11.1591C8.27053 11.0888 8.19436 10.2245 8.11526 9.24308C8.03323 8.25871 7.95998 7.41789 7.95119 7.37394C7.92776 7.25968 7.78127 7.09855 7.66701 7.0634C7.61428 7.04582 6.76174 6.96672 5.77151 6.88468C4.78127 6.80558 3.91115 6.72941 3.84377 6.72062L3.71486 6.70304L4.23928 6.46574C4.52639 6.3339 6.41604 5.46672 8.43752 4.538C11.9209 2.9384 12.1582 2.83 12.1582 2.8505Z" fill="#626060"/>
</svg>
