<svg width="20" height="21" viewBox="0 0 20 21" fill="none" xmlns="http://www.w3.org/2000/svg">
<g clip-path="url(#clip0_38_618)">
<path d="M9.43035 0.913054L9.4295 0.913155C8.52515 1.02997 7.68255 1.32791 6.98545 1.78254C5.67048 2.63657 4.80483 3.92232 4.49521 5.48173C4.44685 5.72365 4.42368 6.1074 4.42368 6.48512C4.42368 6.86291 4.44685 7.24674 4.49524 7.48864C4.74417 8.73331 5.40796 9.91646 6.29232 10.6642C6.34719 10.7106 6.39808 10.7553 6.43977 10.7931C6.42304 10.7974 6.40538 10.8017 6.38713 10.8058C4.97393 11.117 3.39729 11.8395 2.30832 12.6769C1.36309 13.4029 0.762761 14.3059 0.500934 15.4101L0.500905 15.4102C0.471859 15.5334 0.449237 15.7471 0.43244 15.9981C0.415481 16.2516 0.404058 16.5501 0.398932 16.847C0.393805 17.1438 0.394958 17.4401 0.403265 17.6889C0.411472 17.9348 0.426842 18.1428 0.45233 18.258L0.45235 18.2581C0.553073 18.7113 0.748234 19.0663 1.08838 19.4026C1.42346 19.7376 1.72494 19.9103 2.1622 20.0225C2.31779 20.0635 2.4418 20.0815 3.43302 20.0907C4.42946 20.1 6.31218 20.1 9.99771 20.1H9.99924H10.0008C13.6863 20.1 15.569 20.1 16.5655 20.0907C17.5567 20.0815 17.6807 20.0635 17.8363 20.0225C18.2736 19.9103 18.5751 19.7376 18.9102 19.4025C19.2502 19.0663 19.4453 18.7115 19.546 18.2586C19.5726 18.1429 19.5884 17.9349 19.5968 17.6895C19.6053 17.4409 19.6063 17.1449 19.6009 16.8483C19.5956 16.5516 19.5838 16.2532 19.5666 15.9996C19.5495 15.7483 19.5266 15.5343 19.4976 15.4104L19.4976 15.4102C19.121 13.8162 18.069 12.6785 16.1214 11.7197C15.8704 11.596 15.7002 11.5207 15.5593 11.4899C15.4097 11.4571 15.2959 11.4748 15.1613 11.5216C15.046 11.5602 14.9499 11.6115 14.869 11.6837C14.7879 11.756 14.7268 11.845 14.6761 11.9524L14.6761 11.9525C14.6148 12.083 14.581 12.2004 14.5821 12.3213C14.5832 12.4423 14.6192 12.5568 14.6806 12.6815L14.6808 12.6821C14.7392 12.7988 14.7859 12.8785 14.9003 12.9629C15.0048 13.04 15.1677 13.1223 15.4498 13.2616C15.9266 13.5 16.5282 13.8892 16.866 14.1798L16.8667 14.1804C17.2808 14.5297 17.5745 14.9494 17.7428 15.4217C17.8963 15.8609 17.9265 16.1394 17.9116 17.121L17.9116 17.1212C17.906 17.5544 17.9023 17.7725 17.8898 17.9004C17.8837 17.963 17.876 17.9982 17.8671 18.0237C17.8584 18.0485 17.8472 18.0686 17.8265 18.1019L17.8264 18.1021C17.7867 18.1661 17.6901 18.2637 17.618 18.313C17.6178 18.3131 17.6176 18.3133 17.6174 18.3134L17.4916 18.3963H9.99924H2.50692L2.38043 18.313C2.30841 18.2637 2.21177 18.1661 2.17213 18.1021L2.17203 18.1019C2.15131 18.0686 2.14008 18.0485 2.13139 18.0237C2.12252 17.9982 2.11476 17.963 2.10866 17.9004C2.09618 17.7725 2.09245 17.5544 2.08684 17.1212L2.08684 17.121C2.07202 16.1576 2.10224 15.8752 2.24484 15.4581L2.24487 15.458C2.40268 14.9953 2.701 14.55 3.05482 14.2426C4.05286 13.3799 5.57313 12.6807 7.16011 12.3604L7.16053 12.3603C7.98139 12.191 8.64009 12.1208 9.79855 12.0801L9.79863 12.0801C10.8365 12.0428 11.1926 11.9862 11.8551 11.7553L9.43035 0.913054ZM9.43035 0.913054C9.59416 0.893316 9.9244 0.897655 10.2509 0.914793C10.5784 0.931982 10.9172 0.962858 11.0995 0.99971L11.1004 0.999901M9.43035 0.913054L11.1004 0.999901M11.1004 0.999901C13.3677 1.47981 15.0463 3.1892 15.5033 5.48166C15.5516 5.72357 15.5748 6.10736 15.5748 6.48512C15.5748 6.86287 15.5516 7.24666 15.5033 7.48857M11.1004 0.999901L15.5033 7.48857M15.5033 7.48857C15.1031 9.49718 13.7353 11.1009 11.8552 11.7553L15.5033 7.48857ZM0.598236 15.4332C0.490563 15.8898 0.457147 17.8168 0.549969 18.2364L0.598236 15.4332ZM13.1164 4.12859L13.1163 4.12844C12.5956 3.44135 11.7983 2.91561 10.9584 2.69833C10.7589 2.64851 10.4735 2.61197 10.1884 2.59546C9.90268 2.57893 9.62595 2.58303 9.44304 2.61112C8.43212 2.77055 7.48623 3.33265 6.88211 4.1285L6.88204 4.12859C6.63072 4.45889 6.32438 5.09633 6.20856 5.52671C6.16637 5.68997 6.14378 5.79357 6.13109 5.92222C6.11818 6.05305 6.11533 6.21165 6.11533 6.48512C6.11533 6.75859 6.11818 6.91719 6.13109 7.04801C6.14378 7.17666 6.16637 7.28027 6.20856 7.44353C6.32438 7.87388 6.63069 8.51129 6.882 8.84161C7.10631 9.13459 7.49556 9.5089 7.79334 9.70622L7.79335 9.70621L7.79483 9.70723C8.11862 9.93029 8.64625 10.1671 9.04861 10.2759C9.20797 10.318 9.31059 10.3406 9.4387 10.3533C9.56904 10.3662 9.72763 10.369 9.99924 10.369C10.2709 10.369 10.4294 10.3662 10.5598 10.3533C10.6879 10.3406 10.7905 10.318 10.9499 10.2759C11.3522 10.1671 11.8799 9.93029 12.2037 9.70723L12.2051 9.70622C12.5029 9.50891 12.8921 9.13463 13.1164 8.84165C13.3678 8.51135 13.6741 7.87391 13.7899 7.44353C13.8321 7.28027 13.8547 7.17667 13.8674 7.04801C13.8803 6.91719 13.8832 6.75859 13.8832 6.48512C13.8832 6.21165 13.8803 6.05305 13.8674 5.92222C13.8547 5.79357 13.8321 5.68997 13.7899 5.52671C13.6741 5.09634 13.3678 4.45889 13.1164 4.12859Z" fill="#9C9C9C" stroke="#9C9C9C" stroke-width="0.2"/>
</g>
<defs>
<clipPath id="clip0_38_618">
<rect width="20" height="20" fill="white" transform="translate(0 0.5)"/>
</clipPath>
</defs>
</svg>
