<svg width="20" height="21" viewBox="0 0 20 21" fill="none" xmlns="http://www.w3.org/2000/svg">
<g clip-path="url(#clip0_38_608)">
<path d="M8.34905 0.501999C6.90799 0.665758 6.01901 0.913734 4.98032 1.43308C4.11474 1.86821 3.46907 2.32205 2.76725 2.9958C-0.0681013 5.71886 -0.81203 9.96253 0.942519 13.4576C2.86083 17.2755 7.11385 19.2219 11.2312 18.1598C12.3635 17.865 13.3413 17.3878 14.5064 16.5456C14.5578 16.5128 15.0257 16.9527 16.4995 18.4218C18.633 20.546 18.6284 20.5413 19.1196 20.4851C19.7372 20.4103 20.1162 19.8208 19.9525 19.2032C19.8963 18.9973 19.7372 18.8242 17.9453 17.0228C16.4621 15.535 16.0129 15.0531 16.0457 15.0063C16.958 13.7524 17.4914 12.5827 17.7815 11.2258C17.9312 10.5099 17.9874 9.16713 17.8985 8.4466C17.7394 7.17396 17.3136 5.91069 16.7007 4.89539C15.7556 3.33735 14.4783 2.16765 12.8641 1.38629C11.9798 0.960522 11.2499 0.73126 10.3235 0.590897C9.86966 0.520716 8.65786 0.464569 8.34905 0.501999ZM10.375 2.62149C12.2091 3.00983 13.7343 4.03449 14.7637 5.56446C16.3545 7.93193 16.3545 10.9685 14.773 13.3593C14.352 13.9957 13.4957 14.8519 12.8594 15.273C11.5306 16.1526 9.98663 16.555 8.42859 16.4286C5.96755 16.2274 3.84337 14.8051 2.74853 12.6248C1.12967 9.39639 2.19644 5.50363 5.24233 3.55258C6.00966 3.0613 7.09982 2.66828 8.07301 2.5326C8.58299 2.46242 9.85563 2.5092 10.375 2.62149Z" fill="#9C9C9C"/>
</g>
<defs>
<clipPath id="clip0_38_608">
<rect width="20" height="20" fill="white" transform="translate(0 0.5)"/>
</clipPath>
</defs>
</svg>
