<svg width="36" height="36" viewBox="0 0 36 36" fill="none" xmlns="http://www.w3.org/2000/svg">
<path d="M19.2974 4.49424C18.7193 3.49802 17.2806 3.49801 16.7026 4.49424L12.6315 11.5102C12.3459 12.0023 11.8524 12.3382 11.2898 12.4231L3.66029 13.5755C2.37886 13.769 1.92937 15.3869 2.92733 16.2137L8.61097 20.9226C9.13708 21.3584 9.38446 22.046 9.25666 22.7172L7.76991 30.5249C7.53488 31.7591 8.83056 32.7181 9.94229 32.1327L17.1264 28.35C17.6732 28.0621 18.3267 28.0621 18.8735 28.35L26.0576 32.1327C27.1694 32.7181 28.4651 31.7591 28.23 30.5249L26.7433 22.7172C26.6155 22.046 26.8629 21.3584 27.389 20.9226L33.0726 16.2137C34.0706 15.3869 33.6211 13.769 32.3396 13.5755L24.7102 12.4231C24.1476 12.3382 23.654 12.0023 23.3684 11.5102L19.2974 4.49424Z" fill="#353535"/>
</svg>
