<svg width="36" height="36" viewBox="0 0 36 36" fill="none" xmlns="http://www.w3.org/2000/svg">
<path fill-rule="evenodd" clip-rule="evenodd" d="M15.7295 6.17132C16.7411 4.42792 19.2588 4.42792 20.2704 6.17132L23.3684 11.5104C23.654 12.0025 24.1475 12.3383 24.7101 12.4233L29.8546 13.2003C32.0971 13.539 32.8837 16.3704 31.1373 17.8173L27.3889 20.9227C26.8628 21.3586 26.6154 22.0462 26.7432 22.7173L27.7932 28.2313C28.2045 30.3912 25.9371 32.0694 23.9916 31.045L18.8735 28.3501C18.3267 28.0622 17.6732 28.0622 17.1264 28.3501L12.0083 31.045C10.0628 32.0694 7.79535 30.3912 8.20665 28.2313L9.25662 22.7173C9.38442 22.0462 9.13704 21.3586 8.61093 20.9227L4.86258 17.8173C3.11615 16.3704 3.90276 13.539 6.14525 13.2003L11.2897 12.4233C11.8523 12.3383 12.3459 12.0025 12.6314 11.5104L15.7295 6.17132ZM18.3243 7.30056C18.1798 7.0515 17.8201 7.05151 17.6756 7.30056L14.5776 12.6396C13.9493 13.7223 12.8635 14.4611 11.6257 14.6481L6.48127 15.4251C6.16092 15.4735 6.04855 15.8779 6.29803 16.0846L10.0464 19.1901C11.2038 20.149 11.7481 21.6616 11.4669 23.1382L10.4169 28.6522C10.3582 28.9607 10.6821 29.2005 10.96 29.0541L16.0781 26.3592C17.281 25.7258 18.7188 25.7258 19.9218 26.3592L25.0398 29.0541C25.3178 29.2005 25.6417 28.9607 25.5829 28.6522L24.533 23.1382C24.2518 21.6616 24.796 20.149 25.9535 19.1901L29.7018 16.0846C29.9513 15.8779 29.8389 15.4735 29.5186 15.4251L24.3741 14.6481C23.1364 14.4611 22.0505 13.7223 21.4223 12.6396L18.3243 7.30056Z" fill="#353535"/>
</svg>
