<svg width="25" height="24" viewBox="0 0 25 24" fill="none" xmlns="http://www.w3.org/2000/svg">
<path d="M9.75 3C9.75 2.58579 10.0858 2.25 10.5 2.25H14.5C14.9142 2.25 15.25 2.58579 15.25 3V3.75H19.5C19.9142 3.75 20.25 4.08579 20.25 4.5C20.25 4.91421 19.9142 5.25 19.5 5.25H5.5C5.08579 5.25 4.75 4.91421 4.75 4.5C4.75 4.08579 5.08579 3.75 5.5 3.75H9.75V3Z" fill="#9C9C9C"/>
<path fill-rule="evenodd" clip-rule="evenodd" d="M6.7399 7.94478C6.76803 7.69157 6.98206 7.5 7.23684 7.5H17.7632C18.0179 7.5 18.232 7.69157 18.2601 7.94478L18.4602 9.74613C18.821 12.9931 18.821 16.2701 18.4602 19.517L18.4405 19.6944C18.3091 20.8769 17.3926 21.8199 16.2143 21.9849C13.7501 22.3299 11.2499 22.3299 8.78574 21.9849C7.60737 21.8199 6.69085 20.8769 6.55945 19.6944L6.53975 19.517C6.17897 16.2701 6.17897 12.9931 6.53975 9.74613L6.7399 7.94478ZM15.0303 12.4697C15.3232 12.7626 15.3232 13.2374 15.0303 13.5303L13.5607 15L15.0303 16.4697C15.3232 16.7626 15.3232 17.2374 15.0303 17.5303C14.7374 17.8232 14.2626 17.8232 13.9697 17.5303L12.5 16.0607L11.0303 17.5303C10.7374 17.8232 10.2626 17.8232 9.96968 17.5303C9.67678 17.2374 9.67678 16.7626 9.96968 16.4697L11.4393 15L9.96967 13.5303C9.67678 13.2374 9.67678 12.7626 9.96967 12.4697C10.2626 12.1768 10.7374 12.1768 11.0303 12.4697L12.5 13.9393L13.9697 12.4697C14.2626 12.1768 14.7374 12.1768 15.0303 12.4697Z" fill="#9C9C9C"/>
</svg>
