<svg width="25" height="24" viewBox="0 0 25 24" fill="none" xmlns="http://www.w3.org/2000/svg">
<path fill-rule="evenodd" clip-rule="evenodd" d="M21.5101 10.1714L21.5127 13.7943C21.4872 14.1394 21.4543 14.4842 21.4141 14.8283C21.3468 15.4037 20.879 15.8678 20.2916 15.9335C18.4519 16.1391 16.5481 16.1391 14.7083 15.9335C14.1209 15.8678 13.6531 15.4037 13.5858 14.8283C13.3661 12.9492 13.3661 11.051 13.5858 9.17201C13.6531 8.59661 14.1209 8.13246 14.7083 8.06681C16.5481 7.86119 18.4519 7.86119 20.2916 8.06681C20.879 8.13246 21.3468 8.59661 21.4141 9.17201C21.453 9.50462 21.485 9.83782 21.5101 10.1714ZM17.5 10.5001C16.6715 10.5001 16 11.1717 16 12.0001C16 12.8286 16.6715 13.5001 17.5 13.5001C18.3284 13.5001 19 12.8286 19 12.0001C19 11.1717 18.3284 10.5001 17.5 10.5001Z" fill="#9C9C9C"/>
<path d="M20.9036 6.03985C21.059 6.30911 20.7672 6.61063 20.4582 6.57609C18.5077 6.3581 16.4922 6.3581 14.5417 6.57609C13.2723 6.71796 12.2457 7.7175 12.096 8.99776C11.8627 10.9925 11.8627 13.0077 12.096 15.0025C12.2457 16.2828 13.2723 17.2823 14.5417 17.4242C16.4922 17.6422 18.5077 17.6422 20.4582 17.4242C20.7693 17.3894 21.0635 17.693 20.9065 17.9638C20.1279 19.3066 18.7398 20.2438 17.1268 20.4135L16.4749 20.4821C13.1641 20.8305 9.82462 20.8076 6.51887 20.4136L6.08692 20.3622C4.3048 20.1498 2.89275 18.7575 2.65538 16.9785C2.21448 13.6742 2.21448 10.326 2.65538 7.02179C2.89275 5.24282 4.3048 3.85046 6.08692 3.6381L6.51886 3.58663C9.82461 3.1927 13.1641 3.16973 16.4749 3.51813L17.1268 3.58673C18.7412 3.75661 20.1271 4.69522 20.9036 6.03985Z" fill="#9C9C9C"/>
</svg>
